# xmcd
#
# Track frame offsets:
# 150
# 12400
# 22825
# 36400
# 47200
# 61100
# 73825
# 82525
# 92350
# 103212
# 113787
# 124717
#
# Disc length: 1799 seconds
#
#
# Revision: 0
# Processed by: cddbd v1.4PL0 Copyright (c) Steve Scherf et al.
# Submitted via: FreeRIP 2.00 
#
DISCID=9007050c
DTITLE=Boone, Pat - 36 All Time Greatest Hits Disk 3
DYEAR=1997
DGENRE=Oldies
TTITLE0=Fools Hall Of Fame
TTITLE1=Beyond The Sunset
TTITLE2=I'll Be Home
TTITLE3=Walking The Floor Over You
TTITLE4=Delia Gone
TTITLE5=Dear John
TTITLE6=That's How Much I Love You
TTITLE7=For My Good Fortune
TTITLE8=I'll Remember Tonight
TTITLE9=Good Rockin' Tonight
TTITLE10=Ain't That A Shame
TTITLE11=Twist Twelve And Twenty
EXTD=
EXTT0=
EXTT1=
EXTT2=
EXTT3=
EXTT4=
EXTT5=
EXTT6=
EXTT7=
EXTT8=
EXTT9=
EXTT10=
EXTT11=
PLAYORDER=
